<?xml version="1.0" encoding="UTF-8" ?>
<!DOCTYPE svg PUBLIC "-//W3C//DTD SVG 1.1//EN" "http://www.w3.org/Graphics/SVG/1.1/DTD/svg11.dtd">
<svg width="800pt" height="729pt" viewBox="0 0 800 729" version="1.1" xmlns="http://www.w3.org/2000/svg">
<g id="#3f3e40ff">
<path fill="#3f3e40" opacity="1.00" d=" M 67.62 60.65 C 83.30 59.55 97.77 66.57 112.13 71.80 C 123.84 77.66 136.93 79.80 148.86 85.15 C 194.97 104.78 235.08 136.45 269.72 172.27 C 279.32 181.24 287.89 191.27 296.29 201.36 C 301.29 195.63 306.35 189.96 311.10 184.02 C 320.71 172.34 334.03 164.75 346.35 156.32 C 351.41 152.99 357.44 149.08 363.72 151.40 C 371.12 154.56 375.15 161.99 379.85 168.07 C 389.68 182.69 400.35 196.74 409.00 212.13 C 415.11 202.00 421.15 191.77 428.41 182.40 C 435.36 172.76 441.07 161.94 449.98 153.92 C 455.24 149.00 463.21 150.47 468.59 154.38 C 481.93 163.42 496.48 171.44 506.87 184.05 C 511.48 190.13 516.63 195.77 521.34 201.76 C 555.09 161.88 594.19 125.81 639.66 99.64 C 653.51 91.86 667.92 84.89 683.08 80.03 C 702.36 74.73 720.06 64.53 739.79 60.65 C 743.97 60.77 749.25 58.82 752.39 62.60 C 760.93 72.80 763.68 86.26 766.22 98.97 C 769.13 117.49 771.37 136.22 770.79 155.01 C 770.55 161.52 771.54 167.96 772.51 174.37 C 775.47 197.31 776.23 220.67 773.62 243.68 C 766.58 273.13 757.77 302.13 749.22 331.16 C 740.77 351.62 731.83 372.20 718.38 389.96 C 718.86 430.16 719.10 470.37 720.16 510.55 C 723.63 511.27 727.12 511.91 730.53 512.90 C 727.02 512.67 723.56 512.08 720.11 511.46 C 719.96 531.06 719.75 550.84 715.79 570.12 C 727.10 575.37 739.25 579.08 749.77 585.87 C 738.24 581.49 726.95 576.49 715.25 572.55 C 709.57 593.22 700.07 612.64 688.79 630.80 C 703.98 644.51 717.83 659.70 730.68 675.60 C 716.48 661.16 702.72 646.15 686.87 633.42 C 675.34 648.19 662.66 663.08 645.65 671.66 C 612.90 685.50 578.52 695.94 543.08 699.85 C 533.76 700.54 524.39 699.55 515.09 700.72 C 498.48 702.96 481.71 700.90 465.03 701.89 C 454.99 701.69 445.06 703.70 435.02 703.37 C 426.34 703.00 417.68 702.14 409.00 701.95 C 395.64 702.19 382.27 704.38 368.92 702.79 C 345.90 700.15 322.64 703.44 299.66 700.42 C 291.43 699.71 283.15 700.49 274.91 699.85 C 239.48 695.94 205.09 685.50 172.35 671.66 C 155.34 663.07 142.66 648.19 131.13 633.42 C 115.28 646.15 101.53 661.15 87.33 675.60 C 100.17 659.69 114.02 644.51 129.21 630.80 C 117.93 612.64 108.43 593.22 102.75 572.55 C 91.05 576.49 79.75 581.49 68.22 585.87 C 78.74 579.08 90.90 575.38 102.21 570.12 C 98.25 550.84 98.04 531.06 97.89 511.46 C 94.44 512.08 90.98 512.67 87.48 512.89 C 90.89 511.91 94.37 511.27 97.84 510.55 C 98.90 470.37 99.14 430.16 99.62 389.96 C 88.63 375.49 80.68 359.08 73.55 342.44 C 66.96 329.42 64.48 314.90 59.84 301.17 C 53.61 274.94 42.21 249.40 42.94 221.99 C 42.34 202.24 43.98 182.49 47.13 162.99 C 48.19 148.39 47.29 133.57 50.23 119.14 C 53.29 103.42 54.89 87.19 61.51 72.43 C 63.44 68.52 63.72 63.17 67.62 60.65 M 88.13 76.81 C 84.41 82.24 79.47 87.00 77.32 93.36 C 64.34 128.16 59.95 165.76 60.24 202.72 C 59.83 238.31 67.32 273.34 72.54 308.39 C 74.53 324.96 83.66 339.24 91.27 353.68 C 93.94 358.80 97.39 363.44 100.82 368.07 C 102.13 360.59 101.45 352.69 104.58 345.61 C 107.78 366.58 106.71 388.04 109.72 409.09 C 111.92 442.04 114.67 474.96 116.88 507.91 C 152.53 505.03 188.52 507.35 223.49 514.79 C 187.95 513.53 152.48 508.39 116.87 509.80 C 117.78 527.68 120.42 545.48 123.26 563.15 C 149.56 555.16 176.18 548.11 203.36 543.85 C 181.54 535.64 159.47 527.99 137.67 519.76 C 164.09 516.82 189.45 527.47 212.18 539.89 C 218.60 544.12 226.45 540.70 233.52 540.87 C 234.22 537.59 235.28 534.38 237.12 531.56 C 238.00 534.43 238.55 537.40 238.87 540.39 C 243.37 540.31 247.88 540.19 252.38 540.33 C 247.84 540.96 243.27 541.36 238.71 541.87 C 238.14 548.95 238.34 556.13 240.19 563.03 C 248.08 561.47 255.58 558.41 263.50 557.01 C 256.34 560.73 248.53 563.00 241.41 566.81 C 250.23 587.80 267.75 605.12 288.71 613.84 C 312.60 630.55 343.66 628.67 370.84 622.89 C 381.87 619.90 391.93 613.97 400.18 606.11 C 404.10 601.98 410.20 603.55 415.25 603.55 C 416.56 605.10 418.02 606.71 419.98 607.45 C 427.18 615.26 437.11 619.93 447.16 622.90 C 467.52 627.03 489.16 629.42 509.39 623.39 C 537.00 612.87 565.89 595.77 576.24 566.46 C 569.20 563.11 561.80 560.59 554.82 557.11 C 562.62 558.58 570.05 561.48 577.84 563.00 C 579.51 556.12 579.99 548.98 579.18 541.94 C 575.04 541.35 570.90 540.85 566.76 540.34 C 570.77 540.29 574.80 540.29 578.82 540.22 C 579.45 537.51 580.24 534.84 581.30 532.27 C 583.48 534.57 583.79 537.91 584.66 540.83 C 591.67 540.76 599.46 544.10 605.82 539.89 C 619.15 532.28 633.48 526.51 648.13 522.03 C 655.78 519.47 663.94 520.44 671.80 519.19 C 674.49 519.16 677.18 519.23 679.86 519.45 C 658.64 528.57 636.36 535.37 614.82 543.78 C 623.26 545.65 631.85 547.16 640.39 548.33 C 648.32 550.44 656.26 552.64 664.35 554.10 L 664.30 554.59 C 674.54 557.06 684.55 560.35 694.72 563.05 C 697.62 545.46 700.22 527.71 701.09 509.90 C 692.01 509.29 682.89 509.24 673.81 509.83 C 647.35 511.08 620.95 513.57 594.50 514.80 C 620.20 509.67 646.34 506.04 672.63 507.02 C 682.06 506.51 691.49 507.26 700.90 507.92 C 704.50 459.62 708.65 411.35 711.68 363.02 C 712.06 357.20 711.83 351.27 713.42 345.60 C 716.54 352.69 715.87 360.59 717.18 368.07 C 724.41 359.15 729.28 348.72 734.77 338.71 C 740.99 327.76 744.87 315.65 746.35 303.16 C 752.51 262.63 760.57 221.85 757.48 180.65 C 755.42 152.08 751.81 123.28 741.76 96.28 C 739.73 88.75 734.45 82.89 729.82 76.86 C 728.42 77.38 727.04 77.90 725.67 78.43 C 715.10 82.74 704.32 86.52 693.69 90.66 C 647.97 110.52 604.29 135.79 566.51 168.49 C 548.63 184.36 529.36 199.18 514.40 217.95 C 506.85 223.79 503.01 232.89 496.36 239.56 C 500.87 229.77 507.18 220.97 513.14 212.03 C 498.13 198.49 485.06 182.46 467.68 171.83 C 465.09 168.35 461.31 166.03 457.86 163.51 C 450.94 169.05 445.70 176.30 439.90 182.93 C 433.12 191.81 424.16 199.10 418.33 208.63 C 414.34 210.76 412.64 216.82 408.16 217.30 C 400.08 208.56 392.73 199.11 384.55 190.44 C 376.77 182.13 370.42 172.44 361.72 165.04 C 361.51 164.64 361.10 163.85 360.89 163.46 C 345.92 173.46 331.96 185.18 319.41 198.13 C 314.66 202.88 309.29 206.96 304.72 211.90 C 310.79 220.82 317.05 229.72 321.64 239.53 C 316.19 233.83 312.34 226.84 307.05 220.99 C 292.15 203.91 275.29 188.65 257.91 174.15 C 241.57 159.86 224.71 145.83 205.93 134.86 C 185.86 120.00 163.10 109.12 140.75 98.11 C 123.84 89.51 105.61 84.05 88.13 76.81 M 221.53 544.73 C 225.12 547.22 228.95 549.34 232.87 551.26 C 233.00 548.40 233.13 545.53 233.26 542.67 C 229.33 543.22 225.41 543.89 221.53 544.73 M 584.75 542.67 C 584.87 545.53 584.99 548.40 585.12 551.27 C 589.05 549.34 592.88 547.22 596.48 544.73 C 592.59 543.89 588.68 543.22 584.75 542.67 M 124.13 566.32 C 128.53 583.90 137.20 600.13 147.15 615.16 C 172.44 593.88 201.36 577.19 232.34 565.69 C 229.79 554.89 218.83 547.05 207.99 546.96 C 179.81 552.34 151.83 558.86 124.13 566.32 M 585.72 565.69 C 589.14 567.14 592.59 568.54 596.09 569.81 C 612.48 576.89 628.61 584.73 643.46 594.72 C 652.94 601.01 661.82 608.11 670.84 615.03 C 680.85 600.10 689.52 583.84 693.83 566.29 C 683.39 563.37 672.85 560.82 662.31 558.32 C 652.57 555.95 642.81 553.62 633.00 551.62 C 627.34 550.33 621.63 549.27 615.97 548.02 C 603.42 544.01 588.58 552.94 585.72 565.69 M 149.97 618.53 C 159.42 629.76 169.57 641.28 182.66 648.32 C 221.20 663.40 261.98 675.79 303.83 674.15 C 318.70 677.24 333.93 675.12 348.97 675.81 C 358.64 676.19 368.34 676.10 377.98 676.99 C 415.65 680.32 453.28 674.67 490.98 675.86 C 504.71 676.37 518.26 673.15 532.01 674.00 C 567.24 672.35 601.22 661.39 633.95 648.96 C 647.90 642.36 657.69 629.79 668.14 618.87 C 659.33 611.72 649.88 605.40 640.39 599.19 C 625.99 589.52 610.32 581.98 594.63 574.67 C 591.40 573.10 588.12 571.65 584.79 570.32 C 580.70 578.77 578.34 588.10 572.76 595.79 C 564.14 607.34 552.36 616.11 539.69 622.79 C 534.42 625.16 532.85 631.04 531.97 636.24 L 531.33 636.38 C 528.40 642.17 526.16 648.27 524.12 654.42 C 521.29 650.02 519.92 644.93 518.68 639.91 C 518.06 637.94 517.45 635.97 516.84 634.00 C 495.00 640.89 471.30 639.92 449.42 633.87 C 447.68 644.99 439.99 654.59 430.94 660.81 C 417.13 665.61 401.94 663.79 387.71 661.94 C 381.59 657.76 377.46 651.56 372.60 646.12 C 370.82 642.18 369.57 638.05 368.54 633.88 C 346.72 639.88 323.06 640.96 301.30 633.98 C 300.86 635.05 300.42 636.14 299.99 637.23 C 297.11 643.66 299.33 651.71 295.00 657.35 C 287.09 646.06 289.28 627.32 275.07 620.90 C 264.38 615.14 254.64 607.45 246.94 598.03 C 240.29 589.92 237.48 579.63 233.30 570.21 C 203.60 582.73 175.45 598.76 149.97 618.53 M 393.48 622.46 C 388.17 626.82 381.69 629.26 375.44 631.89 C 377.93 641.96 386.17 651.15 396.93 651.97 C 404.96 652.30 413.03 652.30 421.07 651.97 C 431.79 651.15 440.07 642.01 442.52 631.95 C 436.31 629.21 429.81 626.83 424.52 622.46 C 420.01 619.23 416.68 614.33 411.30 612.40 C 411.40 621.55 412.50 630.69 411.90 639.85 C 409.96 639.84 408.03 639.84 406.10 639.84 C 405.49 630.68 406.60 621.54 406.70 612.39 C 401.32 614.33 397.99 619.23 393.48 622.46 M 289.65 628.60 C 290.99 633.24 292.11 637.93 293.33 642.61 C 294.31 638.97 295.59 635.41 297.52 632.17 C 294.88 631.03 292.26 629.83 289.65 628.60 M 520.48 632.17 C 522.42 635.42 523.69 638.99 524.68 642.63 C 525.88 637.94 527.01 633.24 528.35 628.60 C 525.74 629.83 523.12 631.03 520.48 632.17 Z" />
<path fill="#3f3e40" opacity="1.00" d=" M 556.44 318.15 C 571.66 316.18 587.38 318.33 601.44 324.54 C 613.26 328.93 620.31 340.10 624.79 351.28 C 636.27 375.10 634.98 404.05 622.13 427.06 C 612.45 447.48 595.07 463.72 574.13 472.15 C 553.16 479.10 528.57 481.92 508.70 470.24 C 497.23 463.18 486.18 454.83 478.54 443.56 C 474.77 438.10 473.46 431.47 470.48 425.61 C 466.32 417.41 466.45 407.91 467.20 398.98 C 469.01 375.34 484.44 355.67 501.93 340.93 C 512.43 333.01 522.99 324.03 536.21 321.28 C 542.92 320.04 549.73 319.40 556.44 318.15 M 550.45 326.60 C 528.65 328.07 508.37 339.86 494.56 356.54 C 481.43 368.43 470.52 384.63 470.39 402.95 C 469.50 418.86 475.03 434.66 484.95 447.03 C 494.67 462.02 512.13 471.03 529.87 471.45 C 550.75 474.47 574.22 470.08 589.18 454.19 C 596.21 446.55 603.80 439.36 609.80 430.83 C 623.39 409.69 630.37 381.84 620.12 357.84 C 613.65 344.01 600.93 333.24 586.35 328.77 C 574.75 325.15 562.41 326.18 550.45 326.60 Z" />
<path fill="#3f3e40" opacity="1.00" d=" M 228.31 322.22 C 241.76 319.29 255.59 320.50 268.99 322.98 C 281.86 323.47 293.39 329.82 303.53 337.27 C 314.11 344.94 323.82 353.87 331.57 364.44 C 343.78 378.96 348.45 398.68 346.87 417.33 C 346.31 424.16 342.48 430.01 340.29 436.35 C 335.54 450.71 323.63 461.15 311.60 469.56 C 296.29 480.50 276.37 483.49 258.14 479.69 C 231.80 476.17 207.85 459.17 195.13 435.94 C 185.96 420.76 180.24 402.98 181.43 385.13 C 182.40 369.22 187.98 353.84 196.50 340.46 C 203.58 329.70 216.46 325.35 228.31 322.22 M 238.44 329.57 C 220.04 331.31 202.92 342.96 194.55 359.42 C 191.00 370.73 187.88 382.65 189.48 394.61 C 191.13 406.40 194.77 417.97 200.65 428.34 C 207.42 439.85 217.25 449.05 226.33 458.68 C 241.56 473.67 264.52 477.38 284.96 474.37 C 303.19 473.85 320.70 463.87 330.39 448.42 C 342.02 433.72 345.96 413.82 342.41 395.58 C 339.14 381.34 330.03 369.25 319.44 359.54 C 310.40 348.84 299.17 340.01 286.04 334.92 C 271.16 328.21 254.36 328.94 238.44 329.57 Z" />
<path fill="#3f3e40" opacity="1.00" d=" M 546.33 338.36 C 560.34 337.00 575.36 336.99 588.05 343.92 C 600.55 350.48 609.70 363.61 609.93 377.93 C 611.53 405.81 597.69 432.91 576.77 450.78 C 567.49 457.18 556.12 459.63 545.08 460.88 C 528.17 461.42 509.82 457.89 497.26 445.74 C 489.97 438.07 483.70 428.91 481.60 418.38 C 477.98 399.12 484.93 378.45 498.66 364.64 C 512.03 352.24 527.90 341.11 546.33 338.36 M 571.36 346.49 C 559.97 347.59 552.94 363.79 562.46 371.50 C 571.41 378.87 586.09 370.93 584.62 359.40 C 582.18 353.91 578.50 345.97 571.36 346.49 M 575.35 378.41 C 569.19 378.43 564.76 387.72 571.60 390.47 C 579.38 393.73 585.00 378.02 575.35 378.41 Z" />
<path fill="#3f3e40" opacity="1.00" d=" M 243.33 341.36 C 257.41 339.92 272.39 340.18 285.29 346.75 C 296.61 351.61 306.31 359.41 315.35 367.64 C 331.70 384.12 338.91 411.10 328.53 432.59 C 322.97 442.82 315.16 452.41 304.34 457.34 C 283.45 466.91 257.56 466.23 237.80 454.20 C 220.46 439.55 207.62 418.75 204.76 395.99 C 203.22 384.74 203.29 372.40 209.47 362.44 C 216.58 350.51 229.74 343.10 243.33 341.36 M 277.39 356.50 C 267.73 359.40 264.78 374.79 274.29 379.62 C 282.81 384.82 293.91 375.25 291.82 366.05 C 291.17 359.36 283.99 353.49 277.39 356.50 M 280.24 383.28 C 275.25 385.08 274.06 392.44 278.57 395.46 C 282.82 399.00 289.80 395.34 289.82 389.99 C 290.06 385.25 284.64 381.23 280.24 383.28 Z" />
<path fill="#3f3e40" opacity="1.00" d=" M 378.91 500.05 C 383.29 488.25 396.83 481.66 408.99 483.33 C 419.24 482.11 430.12 484.89 436.97 493.01 C 439.90 496.38 443.10 501.41 440.02 505.71 C 432.40 517.64 427.92 532.02 428.46 546.22 C 426.96 550.51 421.45 550.86 418.00 553.03 C 413.59 555.90 407.88 556.83 403.34 553.68 C 399.27 550.91 391.13 550.65 391.57 544.19 C 392.46 534.73 388.59 525.80 386.04 516.89 C 384.34 511.01 378.78 506.36 378.91 500.05 Z" />
</g>
<g id="#458dc0ff">
<path fill="#458dc0" opacity="1.00" d=" M 88.13 76.81 C 105.61 84.05 123.84 89.51 140.75 98.11 C 163.10 109.12 185.86 120.00 205.93 134.86 C 213.41 143.41 223.88 148.26 232.22 155.78 C 267.66 188.11 294.87 228.50 317.13 270.76 C 318.83 273.71 322.45 280.88 326.11 276.19 C 331.07 266.28 329.60 254.65 328.83 243.97 C 327.64 228.35 324.47 212.96 319.41 198.13 C 331.96 185.18 345.92 173.46 360.89 163.46 C 361.10 163.85 361.51 164.64 361.72 165.04 C 366.19 175.66 376.35 181.94 382.94 191.03 C 393.67 205.58 399.61 222.84 406.29 239.45 C 408.46 238.92 411.46 238.88 412.06 236.17 C 414.92 227.20 416.38 217.83 418.33 208.63 C 424.16 199.10 433.12 191.81 439.90 182.93 C 445.70 176.30 450.94 169.05 457.86 163.51 C 461.31 166.03 465.09 168.35 467.68 171.83 C 475.56 185.94 482.15 200.83 486.55 216.40 C 489.23 225.64 487.30 235.66 490.99 244.67 C 493.93 243.70 496.84 242.29 498.59 239.61 C 503.80 232.34 510.36 226.03 514.40 217.95 C 529.36 199.18 548.63 184.36 566.51 168.49 C 604.29 135.79 647.97 110.52 693.69 90.66 C 704.32 86.52 715.10 82.74 725.67 78.43 C 725.80 97.88 724.13 117.65 719.53 136.59 C 709.05 164.64 693.95 190.99 675.82 214.80 C 668.92 224.45 662.31 234.46 653.39 242.40 C 638.21 258.53 622.37 274.03 606.58 289.56 C 601.83 294.03 595.83 297.41 592.82 303.44 C 604.51 309.09 619.81 304.44 629.39 314.62 C 656.21 337.00 677.95 367.31 683.62 402.37 C 684.47 412.25 681.65 422.07 682.84 431.98 C 683.90 452.17 680.22 472.22 677.15 492.09 C 676.25 497.21 675.98 502.77 672.63 507.02 C 646.34 506.04 620.20 509.67 594.50 514.80 C 620.95 513.57 647.35 511.08 673.81 509.83 C 673.13 512.94 672.46 516.06 671.80 519.19 C 663.94 520.44 655.78 519.47 648.13 522.03 C 633.48 526.51 619.15 532.28 605.82 539.89 C 599.46 544.10 591.67 540.76 584.66 540.83 C 583.79 537.91 583.48 534.57 581.30 532.27 C 570.34 527.44 555.87 528.36 547.40 537.45 C 542.77 544.80 543.04 554.12 538.80 561.71 C 520.88 594.96 483.05 617.38 445.00 614.23 C 436.07 614.55 428.41 609.46 419.98 607.45 C 418.02 606.71 416.56 605.10 415.25 603.55 C 411.81 599.50 409.17 593.08 403.00 593.04 C 395.98 593.25 390.98 598.95 385.21 602.19 C 367.10 613.04 346.36 620.50 324.97 619.35 C 312.49 620.89 300.63 616.75 288.71 613.84 C 267.75 605.12 250.23 587.80 241.41 566.81 C 248.53 563.00 256.34 560.73 263.50 557.01 C 255.58 558.41 248.08 561.47 240.19 563.03 C 238.34 556.13 238.14 548.95 238.71 541.87 C 243.27 541.36 247.84 540.96 252.38 540.33 C 247.88 540.19 243.37 540.31 238.87 540.39 C 238.55 537.40 238.00 534.43 237.12 531.56 C 235.28 534.38 234.22 537.59 233.52 540.87 C 226.45 540.70 218.60 544.12 212.18 539.89 C 189.45 527.47 164.09 516.82 137.67 519.76 C 159.47 527.99 181.54 535.64 203.36 543.85 C 176.18 548.11 149.56 555.16 123.26 563.15 C 120.42 545.48 117.78 527.68 116.87 509.80 C 152.48 508.39 187.95 513.53 223.49 514.79 C 188.52 507.35 152.53 505.03 116.88 507.91 C 114.67 474.96 111.92 442.04 109.72 409.09 C 109.84 387.47 117.49 367.01 122.25 346.24 C 116.93 337.03 107.03 330.97 100.93 322.07 C 91.35 308.18 82.83 293.45 76.00 278.00 C 67.05 253.88 61.58 228.43 60.24 202.72 C 59.95 165.76 64.34 128.16 77.32 93.36 C 79.47 87.00 84.41 82.24 88.13 76.81 M 522.70 319.78 C 493.22 332.70 471.26 358.56 456.43 386.48 C 451.83 393.83 462.64 396.04 467.20 398.98 C 466.45 407.91 466.32 417.41 470.48 425.61 C 473.46 431.47 474.77 438.10 478.54 443.56 C 486.18 454.83 497.23 463.18 508.70 470.24 C 528.57 481.92 553.16 479.10 574.13 472.15 C 595.07 463.72 612.45 447.48 622.13 427.06 C 634.98 404.05 636.27 375.10 624.79 351.28 C 620.31 340.10 613.26 328.93 601.44 324.54 C 587.38 318.33 571.66 316.18 556.44 318.15 C 545.92 312.44 533.22 315.71 522.70 319.78 M 228.31 322.22 C 217.46 322.36 207.11 326.32 197.14 330.25 C 193.41 332.17 188.32 333.55 187.02 338.06 C 184.07 347.62 179.31 356.82 178.90 366.99 C 178.34 373.19 180.98 379.02 181.43 385.13 C 180.24 402.98 185.96 420.76 195.13 435.94 C 207.85 459.17 231.80 476.17 258.14 479.69 C 276.37 483.49 296.29 480.50 311.60 469.56 C 323.63 461.15 335.54 450.71 340.29 436.35 C 342.48 430.01 346.31 424.16 346.87 417.33 C 352.67 411.54 356.35 404.04 359.62 396.62 C 360.86 393.17 363.11 388.94 360.48 385.57 C 350.11 371.20 338.69 356.94 323.18 347.86 C 316.62 344.35 311.08 338.60 303.53 337.27 C 293.39 329.82 281.86 323.47 268.99 322.98 C 255.59 320.50 241.76 319.29 228.31 322.22 M 378.91 500.05 C 378.78 506.36 384.34 511.01 386.04 516.89 C 388.59 525.80 392.46 534.73 391.57 544.19 C 391.13 550.65 399.27 550.91 403.34 553.68 C 407.88 556.83 413.59 555.90 418.00 553.03 C 421.45 550.86 426.96 550.51 428.46 546.22 C 431.22 544.58 435.26 542.97 434.86 539.05 C 434.85 527.69 438.79 516.90 440.02 505.71 C 443.10 501.41 439.90 496.38 436.97 493.01 C 430.12 484.89 419.24 482.11 408.99 483.33 C 396.83 481.66 383.29 488.25 378.91 500.05 Z" />
<path fill="#458dc0" opacity="1.00" d=" M 640.39 548.33 C 647.71 545.91 654.90 542.19 662.77 542.17 C 666.46 544.92 664.38 550.23 664.35 554.10 C 656.26 552.64 648.32 550.44 640.39 548.33 Z" />
<path fill="#458dc0" opacity="1.00" d=" M 221.53 544.73 C 225.41 543.89 229.33 543.22 233.26 542.67 C 233.13 545.53 233.00 548.40 232.87 551.26 C 228.95 549.34 225.12 547.22 221.53 544.73 Z" />
<path fill="#458dc0" opacity="1.00" d=" M 584.75 542.67 C 588.68 543.22 592.59 543.89 596.48 544.73 C 592.88 547.22 589.05 549.34 585.12 551.27 C 584.99 548.40 584.87 545.53 584.75 542.67 Z" />
<path fill="#458dc0" opacity="1.00" d=" M 124.13 566.32 C 151.83 558.86 179.81 552.34 207.99 546.96 C 218.83 547.05 229.79 554.89 232.34 565.69 C 201.36 577.19 172.44 593.88 147.15 615.16 C 137.20 600.13 128.53 583.90 124.13 566.32 Z" />
<path fill="#458dc0" opacity="1.00" d=" M 605.39 560.45 C 614.73 557.92 623.28 552.64 633.00 551.62 C 642.81 553.62 652.57 555.95 662.31 558.32 C 657.50 571.12 652.15 584.01 643.46 594.72 C 628.61 584.73 612.48 576.89 596.09 569.81 C 597.25 565.11 600.63 561.52 605.39 560.45 Z" />
<path fill="#458dc0" opacity="1.00" d=" M 149.97 618.53 C 175.45 598.76 203.60 582.73 233.30 570.21 C 237.48 579.63 240.29 589.92 246.94 598.03 C 254.64 607.45 264.38 615.14 275.07 620.90 C 289.28 627.32 287.09 646.06 295.00 657.35 C 299.33 651.71 297.11 643.66 299.99 637.23 C 322.86 646.60 348.13 649.09 372.60 646.12 C 377.46 651.56 381.59 657.76 387.71 661.94 C 389.80 663.64 391.84 665.41 393.88 667.19 C 380.99 668.81 367.97 667.59 355.06 668.79 C 337.88 669.64 320.97 673.00 303.83 674.15 C 261.98 675.79 221.20 663.40 182.66 648.32 C 169.57 641.28 159.42 629.76 149.97 618.53 Z" />
<path fill="#458dc0" opacity="1.00" d=" M 579.47 603.47 C 587.30 595.56 590.99 584.92 594.63 574.67 C 610.32 581.98 625.99 589.52 640.39 599.19 C 631.26 611.80 618.66 621.11 606.51 630.57 C 600.59 635.09 593.23 636.81 586.38 639.38 C 569.27 646.23 551.91 652.84 533.90 656.89 C 505.06 661.12 475.98 667.38 446.70 663.83 C 451.36 657.41 456.02 651.00 460.40 644.40 C 479.93 645.99 499.56 644.04 518.68 639.91 C 519.92 644.93 521.29 650.02 524.12 654.42 C 526.16 648.27 528.40 642.17 531.33 636.38 L 531.97 636.24 C 551.73 632.80 566.47 617.61 579.47 603.47 Z" />
</g>
<g id="#325d96ff">
<path fill="#325d96" opacity="1.00" d=" M 725.67 78.43 C 727.04 77.90 728.42 77.38 729.82 76.86 C 734.45 82.89 739.73 88.75 741.76 96.28 C 751.81 123.28 755.42 152.08 757.48 180.65 C 760.57 221.85 752.51 262.63 746.35 303.16 C 744.87 315.65 740.99 327.76 734.77 338.71 C 729.28 348.72 724.41 359.15 717.18 368.07 C 715.87 360.59 716.54 352.69 713.42 345.60 C 711.83 351.27 712.06 357.20 711.68 363.02 C 708.65 411.35 704.50 459.62 700.90 507.92 C 691.49 507.26 682.06 506.51 672.63 507.02 C 675.98 502.77 676.25 497.21 677.15 492.09 C 680.22 472.22 683.90 452.17 682.84 431.98 C 681.65 422.07 684.47 412.25 683.62 402.37 C 677.95 367.31 656.21 337.00 629.39 314.62 C 619.81 304.44 604.51 309.09 592.82 303.44 C 595.83 297.41 601.83 294.03 606.58 289.56 C 622.37 274.03 638.21 258.53 653.39 242.40 C 662.31 234.46 668.92 224.45 675.82 214.80 C 693.95 190.99 709.05 164.64 719.53 136.59 C 724.13 117.65 725.80 97.88 725.67 78.43 Z" />
<path fill="#325d96" opacity="1.00" d=" M 205.93 134.86 C 224.71 145.83 241.57 159.86 257.91 174.15 C 275.29 188.65 292.15 203.91 307.05 220.99 C 312.34 226.84 316.19 233.83 321.64 239.53 C 317.05 229.72 310.79 220.82 304.72 211.90 C 309.29 206.96 314.66 202.88 319.41 198.13 C 324.47 212.96 327.64 228.35 328.83 243.97 C 329.60 254.65 331.07 266.28 326.11 276.19 C 322.45 280.88 318.83 273.71 317.13 270.76 C 294.87 228.50 267.66 188.11 232.22 155.78 C 223.88 148.26 213.41 143.41 205.93 134.86 Z" />
<path fill="#325d96" opacity="1.00" d=" M 361.72 165.04 C 370.42 172.44 376.77 182.13 384.55 190.44 C 392.73 199.11 400.08 208.56 408.16 217.30 C 412.64 216.82 414.34 210.76 418.33 208.63 C 416.38 217.83 414.92 227.20 412.06 236.17 C 411.46 238.88 408.46 238.92 406.29 239.45 C 399.61 222.84 393.67 205.58 382.94 191.03 C 376.35 181.94 366.19 175.66 361.72 165.04 Z" />
<path fill="#325d96" opacity="1.00" d=" M 467.68 171.83 C 485.06 182.46 498.13 198.49 513.14 212.03 C 507.18 220.97 500.87 229.77 496.36 239.56 C 503.01 232.89 506.85 223.79 514.40 217.95 C 510.36 226.03 503.80 232.34 498.59 239.61 C 496.84 242.29 493.93 243.70 490.99 244.67 C 487.30 235.66 489.23 225.64 486.55 216.40 C 482.15 200.83 475.56 185.94 467.68 171.83 Z" />
<path fill="#325d96" opacity="1.00" d=" M 60.24 202.72 C 61.58 228.43 67.05 253.88 76.00 278.00 C 82.83 293.45 91.35 308.18 100.93 322.07 C 107.03 330.97 116.93 337.03 122.25 346.24 C 117.49 367.01 109.84 387.47 109.72 409.09 C 106.71 388.04 107.78 366.58 104.58 345.61 C 101.45 352.69 102.13 360.59 100.82 368.07 C 97.39 363.44 93.94 358.80 91.27 353.68 C 83.66 339.24 74.53 324.96 72.54 308.39 C 67.32 273.34 59.83 238.31 60.24 202.72 Z" />
<path fill="#325d96" opacity="1.00" d=" M 522.70 319.78 C 533.22 315.71 545.92 312.44 556.44 318.15 C 549.73 319.40 542.92 320.04 536.21 321.28 C 522.99 324.03 512.43 333.01 501.93 340.93 C 484.44 355.67 469.01 375.34 467.20 398.98 C 462.64 396.04 451.83 393.83 456.43 386.48 C 471.26 358.56 493.22 332.70 522.70 319.78 Z" />
<path fill="#325d96" opacity="1.00" d=" M 197.14 330.25 C 207.11 326.32 217.46 322.36 228.31 322.22 C 216.46 325.35 203.58 329.70 196.50 340.46 C 187.98 353.84 182.40 369.22 181.43 385.13 C 180.98 379.02 178.34 373.19 178.90 366.99 C 179.31 356.82 184.07 347.62 187.02 338.06 C 188.32 333.55 193.41 332.17 197.14 330.25 Z" />
<path fill="#325d96" opacity="1.00" d=" M 303.53 337.27 C 311.08 338.60 316.62 344.35 323.18 347.86 C 338.69 356.94 350.11 371.20 360.48 385.57 C 363.11 388.94 360.86 393.17 359.62 396.62 C 356.35 404.04 352.67 411.54 346.87 417.33 C 348.45 398.68 343.78 378.96 331.57 364.44 C 323.82 353.87 314.11 344.94 303.53 337.27 Z" />
<path fill="#325d96" opacity="1.00" d=" M 428.46 546.22 C 427.92 532.02 432.40 517.64 440.02 505.71 C 438.79 516.90 434.85 527.69 434.86 539.05 C 435.26 542.97 431.22 544.58 428.46 546.22 Z" />
<path fill="#325d96" opacity="1.00" d=" M 673.81 509.83 C 682.89 509.24 692.01 509.29 701.09 509.90 C 700.22 527.71 697.62 545.46 694.72 563.05 C 684.55 560.35 674.54 557.06 664.30 554.59 L 664.35 554.10 C 664.38 550.23 666.46 544.92 662.77 542.17 C 654.90 542.19 647.71 545.91 640.39 548.33 C 631.85 547.16 623.26 545.65 614.82 543.78 C 636.36 535.37 658.64 528.57 679.86 519.45 C 677.18 519.23 674.49 519.16 671.80 519.19 C 672.46 516.06 673.13 512.94 673.81 509.83 Z" />
<path fill="#325d96" opacity="1.00" d=" M 547.40 537.45 C 555.87 528.36 570.34 527.44 581.30 532.27 C 580.24 534.84 579.45 537.51 578.82 540.22 C 574.80 540.29 570.77 540.29 566.76 540.34 C 570.90 540.85 575.04 541.35 579.18 541.94 C 579.99 548.98 579.51 556.12 577.84 563.00 C 570.05 561.48 562.62 558.58 554.82 557.11 C 561.80 560.59 569.20 563.11 576.24 566.46 C 565.89 595.77 537.00 612.87 509.39 623.39 C 489.16 629.42 467.52 627.03 447.16 622.90 C 437.11 619.93 427.18 615.26 419.98 607.45 C 428.41 609.46 436.07 614.55 445.00 614.23 C 483.05 617.38 520.88 594.96 538.80 561.71 C 543.04 554.12 542.77 544.80 547.40 537.45 Z" />
<path fill="#325d96" opacity="1.00" d=" M 585.72 565.69 C 588.58 552.94 603.42 544.01 615.97 548.02 C 621.63 549.27 627.34 550.33 633.00 551.62 C 623.28 552.64 614.73 557.92 605.39 560.45 C 600.63 561.52 597.25 565.11 596.09 569.81 C 592.59 568.54 589.14 567.14 585.72 565.69 Z" />
<path fill="#325d96" opacity="1.00" d=" M 662.31 558.32 C 672.85 560.82 683.39 563.37 693.83 566.29 C 689.52 583.84 680.85 600.10 670.84 615.03 C 661.82 608.11 652.94 601.01 643.46 594.72 C 652.15 584.01 657.50 571.12 662.31 558.32 Z" />
<path fill="#325d96" opacity="1.00" d=" M 572.76 595.79 C 578.34 588.10 580.70 578.77 584.79 570.32 C 588.12 571.65 591.40 573.10 594.63 574.67 C 590.99 584.92 587.30 595.56 579.47 603.47 C 566.47 617.61 551.73 632.80 531.97 636.24 C 532.85 631.04 534.42 625.16 539.69 622.79 C 552.36 616.11 564.14 607.34 572.76 595.79 Z" />
<path fill="#325d96" opacity="1.00" d=" M 385.21 602.19 C 390.98 598.95 395.98 593.25 403.00 593.04 C 409.17 593.08 411.81 599.50 415.25 603.55 C 410.20 603.55 404.10 601.98 400.18 606.11 C 391.93 613.97 381.87 619.90 370.84 622.89 C 343.66 628.67 312.60 630.55 288.71 613.84 C 300.63 616.75 312.49 620.89 324.97 619.35 C 346.36 620.50 367.10 613.04 385.21 602.19 Z" />
<path fill="#325d96" opacity="1.00" d=" M 640.39 599.19 C 649.88 605.40 659.33 611.72 668.14 618.87 C 657.69 629.79 647.90 642.36 633.95 648.96 C 601.22 661.39 567.24 672.35 532.01 674.00 C 518.26 673.15 504.71 676.37 490.98 675.86 C 453.28 674.67 415.65 680.32 377.98 676.99 C 368.34 676.10 358.64 676.19 348.97 675.81 C 333.93 675.12 318.70 677.24 303.83 674.15 C 320.97 673.00 337.88 669.64 355.06 668.79 C 367.97 667.59 380.99 668.81 393.88 667.19 C 391.84 665.41 389.80 663.64 387.71 661.94 C 401.94 663.79 417.13 665.61 430.94 660.81 C 439.99 654.59 447.68 644.99 449.42 633.87 C 471.30 639.92 495.00 640.89 516.84 634.00 C 517.45 635.97 518.06 637.94 518.68 639.91 C 499.56 644.04 479.93 645.99 460.40 644.40 C 456.02 651.00 451.36 657.41 446.70 663.83 C 475.98 667.38 505.06 661.12 533.90 656.89 C 551.91 652.84 569.27 646.23 586.38 639.38 C 593.23 636.81 600.59 635.09 606.51 630.57 C 618.66 621.11 631.26 611.80 640.39 599.19 Z" />
<path fill="#325d96" opacity="1.00" d=" M 301.30 633.98 C 323.06 640.96 346.72 639.88 368.54 633.88 C 369.57 638.05 370.82 642.18 372.60 646.12 C 348.13 649.09 322.86 646.60 299.99 637.23 C 300.42 636.14 300.86 635.05 301.30 633.98 Z" />
</g>
<g id="#ffffffff">
<path fill="#ffffff" opacity="1.00" d=" M 550.45 326.60 C 562.41 326.18 574.75 325.15 586.35 328.77 C 600.93 333.24 613.65 344.01 620.12 357.84 C 630.37 381.84 623.39 409.69 609.80 430.83 C 603.80 439.36 596.21 446.55 589.18 454.19 C 574.22 470.08 550.75 474.47 529.87 471.45 C 512.13 471.03 494.67 462.02 484.95 447.03 C 475.03 434.66 469.50 418.86 470.39 402.95 C 470.52 384.63 481.43 368.43 494.56 356.54 C 508.37 339.86 528.65 328.07 550.45 326.60 M 546.33 338.36 C 527.90 341.11 512.03 352.24 498.66 364.64 C 484.93 378.45 477.98 399.12 481.60 418.38 C 483.70 428.91 489.97 438.07 497.26 445.74 C 509.82 457.89 528.17 461.42 545.08 460.88 C 556.12 459.63 567.49 457.18 576.77 450.78 C 597.69 432.91 611.53 405.81 609.93 377.93 C 609.70 363.61 600.55 350.48 588.05 343.92 C 575.36 336.99 560.34 337.00 546.33 338.36 Z" />
<path fill="#ffffff" opacity="1.00" d=" M 238.44 329.57 C 254.36 328.94 271.16 328.21 286.04 334.92 C 299.17 340.01 310.40 348.84 319.44 359.54 C 330.03 369.25 339.14 381.34 342.41 395.58 C 345.96 413.82 342.02 433.72 330.39 448.42 C 320.70 463.87 303.19 473.85 284.96 474.37 C 264.52 477.38 241.56 473.67 226.33 458.68 C 217.25 449.05 207.42 439.85 200.65 428.34 C 194.77 417.97 191.13 406.40 189.48 394.61 C 187.88 382.65 191.00 370.73 194.55 359.42 C 202.92 342.96 220.04 331.31 238.44 329.57 M 243.33 341.36 C 229.74 343.10 216.58 350.51 209.47 362.44 C 203.29 372.40 203.22 384.74 204.76 395.99 C 207.62 418.75 220.46 439.55 237.80 454.20 C 257.56 466.23 283.45 466.91 304.34 457.34 C 315.16 452.41 322.97 442.82 328.53 432.59 C 338.91 411.10 331.70 384.12 315.35 367.64 C 306.31 359.41 296.61 351.61 285.29 346.75 C 272.39 340.18 257.41 339.92 243.33 341.36 Z" />
<path fill="#ffffff" opacity="1.00" d=" M 571.36 346.49 C 578.50 345.97 582.18 353.91 584.62 359.40 C 586.09 370.93 571.41 378.87 562.46 371.50 C 552.94 363.79 559.97 347.59 571.36 346.49 Z" />
<path fill="#ffffff" opacity="1.00" d=" M 277.39 356.50 C 283.99 353.49 291.17 359.36 291.82 366.05 C 293.91 375.25 282.81 384.82 274.29 379.62 C 264.78 374.79 267.73 359.40 277.39 356.50 Z" />
<path fill="#ffffff" opacity="1.00" d=" M 575.35 378.41 C 585.00 378.02 579.38 393.73 571.60 390.47 C 564.76 387.72 569.19 378.43 575.35 378.41 Z" />
<path fill="#ffffff" opacity="1.00" d=" M 280.24 383.28 C 284.64 381.23 290.06 385.25 289.82 389.99 C 289.80 395.34 282.82 399.00 278.57 395.46 C 274.06 392.44 275.25 385.08 280.24 383.28 Z" />
<path fill="#ffffff" opacity="1.00" d=" M 289.65 628.60 C 292.26 629.83 294.88 631.03 297.52 632.17 C 295.59 635.41 294.31 638.97 293.33 642.61 C 292.11 637.93 290.99 633.24 289.65 628.60 Z" />
<path fill="#ffffff" opacity="1.00" d=" M 520.48 632.17 C 523.12 631.03 525.74 629.83 528.35 628.60 C 527.01 633.24 525.88 637.94 524.68 642.63 C 523.69 638.99 522.42 635.42 520.48 632.17 Z" />
</g>
<g id="#c0454eff">
<path fill="#c0454e" opacity="1.00" d=" M 393.48 622.46 C 397.99 619.23 401.32 614.33 406.70 612.39 C 406.60 621.54 405.49 630.68 406.10 639.84 C 408.03 639.84 409.96 639.84 411.90 639.85 C 412.50 630.69 411.40 621.55 411.30 612.40 C 416.68 614.33 420.01 619.23 424.52 622.46 C 429.81 626.83 436.31 629.21 442.52 631.95 C 440.07 642.01 431.79 651.15 421.07 651.97 C 413.03 652.30 404.96 652.30 396.93 651.97 C 386.17 651.15 377.93 641.96 375.44 631.89 C 381.69 629.26 388.17 626.82 393.48 622.46 Z" />
</g>
</svg>
